<svg width="33" height="40" viewBox="0 0 33 40" fill="none" xmlns="http://www.w3.org/2000/svg">
<path d="M16.5 0.164062C11.0859 0.164062 6.65625 4.59375 6.65625 10.0078V17.7422H3.84375C2.08594 17.7422 0.679688 19.1484 0.679688 20.9062C0.679688 22.418 1.73438 23.6839 3.14062 24.0003V26.5312C3.14062 33.9141 9.11719 39.8906 16.5 39.8906C23.8828 39.8906 29.8594 33.9141 29.8594 26.5312V24.0003C31.2656 23.6839 32.3203 22.418 32.3203 20.9062C32.3203 19.1484 30.9141 17.7422 29.1562 17.7422H26.3438V10.0078C26.3438 4.59375 21.9141 0.164062 16.5 0.164062ZM16.5 2.27344C20.7539 2.27344 24.2344 5.75391 24.2344 10.0078V17.7422H8.76562V10.0078C8.76562 5.75391 12.2461 2.27344 16.5 2.27344ZM3.84375 19.8516H29.1562C29.7539 19.8516 30.2109 20.3086 30.2109 20.9062C30.2109 21.5039 29.7539 21.9609 29.1562 21.9609H3.84375C3.24609 21.9609 2.78906 21.5039 2.78906 20.9062C2.78906 20.3086 3.24609 19.8516 3.84375 19.8516ZM5.25 24.0703H27.75V26.5312C27.75 32.7188 22.6875 37.7812 16.5 37.7812C10.3125 37.7812 5.25 32.7188 5.25 26.5312V24.0703ZM16.5 28.2891C15.9023 28.2891 15.4453 28.7461 15.4453 29.3438V31.4531C15.4453 32.0508 15.9023 32.5078 16.5 32.5078C17.0977 32.5078 17.5547 32.0508 17.5547 31.4531V29.3438C17.5547 28.7461 17.0977 28.2891 16.5 28.2891Z" fill="black"/>
</svg>
