<svg width="16" height="17" viewBox="0 0 16 17" fill="none" xmlns="http://www.w3.org/2000/svg">
<g clip-path="url(#clip0_80_573)">
<path d="M7.91797 16.8621C12.1982 16.8621 15.668 13.2727 15.668 8.84488C15.668 4.41708 12.1982 0.827637 7.91797 0.827637C3.63776 0.827637 0.167969 4.41708 0.167969 8.84488C0.167969 13.2727 3.63776 16.8621 7.91797 16.8621Z" fill="#F0F0F0"/>
<path d="M15.1859 11.6336C15.4975 10.7651 15.668 9.82566 15.668 8.84499C15.668 7.86432 15.4975 6.92492 15.1859 6.0564H0.650013C0.338499 6.92492 0.167969 7.86432 0.167969 8.84499C0.167969 9.82566 0.338499 10.7651 0.650013 11.6336L7.91797 12.3307L15.1859 11.6336Z" fill="#0052B4"/>
<path d="M7.91835 16.8622C11.2506 16.8622 14.0913 14.6865 15.1863 11.6335H0.650391C1.74541 14.6865 4.58612 16.8622 7.91835 16.8622Z" fill="white"/>
</g>
<defs>
<clipPath id="clip0_80_573">
<rect width="15.5" height="16.0345" fill="white" transform="translate(0.167969 0.827637)"/>
</clipPath>
</defs>
</svg>
