<svg width="21" height="24" viewBox="0 0 21 24" fill="none" xmlns="http://www.w3.org/2000/svg">
<path fill-rule="evenodd" clip-rule="evenodd" d="M0.414154 0.355295C0.150921 0.637832 0 1.07305 0 1.63871V21.7521C0 22.3177 0.150921 22.753 0.424099 23.0256L0.495464 23.0858L11.7654 11.8159V11.5626L0.48552 0.295044L0.414154 0.355295Z" fill="url(#paint0_linear_80_724)"/>
<path fill-rule="evenodd" clip-rule="evenodd" d="M15.5148 15.5874L11.7559 11.8272V11.564L15.516 7.80383L15.5973 7.85414L20.0448 10.3818C21.3183 11.0995 21.3183 12.2823 20.0448 13.01L15.5973 15.5376L15.5148 15.5874Z" fill="url(#paint1_linear_80_724)"/>
<path fill-rule="evenodd" clip-rule="evenodd" d="M15.5956 15.5374L11.7553 11.6959L0.414062 23.0372C0.828217 23.4824 1.52549 23.5327 2.30466 23.0974L15.5956 15.5374Z" fill="url(#paint2_linear_80_724)"/>
<path fill-rule="evenodd" clip-rule="evenodd" d="M15.5956 7.85539L2.30466 0.305267C1.52666 -0.139891 0.828217 -0.0796392 0.414062 0.365518L11.7542 11.6957L15.5956 7.85539Z" fill="url(#paint3_linear_80_724)"/>
<defs>
<linearGradient id="paint0_linear_80_724" x1="18.4796" y1="-6.31425" x2="-5.84128" y2="0.170638" gradientUnits="userSpaceOnUse">
<stop stop-color="#047ED6"/>
<stop offset="1" stop-color="#50E6FF"/>
</linearGradient>
<linearGradient id="paint1_linear_80_724" x1="21.7034" y1="11.6947" x2="9.09469" y2="11.6947" gradientUnits="userSpaceOnUse">
<stop stop-color="#FFDA1C"/>
<stop offset="1" stop-color="#FEB705"/>
</linearGradient>
<linearGradient id="paint2_linear_80_724" x1="13.5041" y1="13.7834" x2="-0.986167" y2="38.1757" gradientUnits="userSpaceOnUse">
<stop stop-color="#D9414F"/>
<stop offset="1" stop-color="#8C193F"/>
</linearGradient>
<linearGradient id="paint3_linear_80_724" x1="-2.44275" y1="-6.33722" x2="4.02144" y2="4.55783" gradientUnits="userSpaceOnUse">
<stop stop-color="#33C481"/>
<stop offset="1" stop-color="#61E3A7"/>
</linearGradient>
</defs>
</svg>
