<svg width="45" height="46" viewBox="0 0 45 46" fill="none" xmlns="http://www.w3.org/2000/svg">
<g clip-path="url(#clip0_80_689)">
<path fill-rule="evenodd" clip-rule="evenodd" d="M9.79203 9.82506H19.0519V19.0445H9.79203V9.82506ZM13.0915 5.44647e-06H8.4671C7.36223 -0.0012573 6.26813 0.217065 5.24836 0.642286C4.22066 1.06797 3.28664 1.69148 2.4994 2.47737C1.71373 3.26479 1.09025 4.19877 0.664312 5.22633C0.229143 6.25153 0.00328435 7.35337 1.04803e-05 8.4671V14.1816H3.7546V8.4671C3.75846 7.84943 3.88314 7.23849 4.12162 6.66871C4.35568 6.0962 4.70126 5.57596 5.13825 5.13825C6.0216 4.25642 7.21893 3.76138 8.4671 3.76193H13.0915V5.44647e-06ZM36.5329 5.44647e-06H33.5124V3.75459H36.5329C37.1505 3.75883 37.7614 3.88349 38.3313 4.12161C38.9018 4.35944 39.4214 4.70456 39.8618 5.13825L39.9902 5.27037C40.3694 5.6817 40.6737 6.15619 40.8894 6.67238C41.1295 7.24037 41.2543 7.85044 41.2564 8.4671V14.1816H45.011V8.4671C45.0119 6.28672 44.1673 4.19095 42.6548 2.62051L42.519 2.48471C41.7315 1.69904 40.7976 1.07556 39.77 0.649626C38.7449 0.219971 37.6444 -0.000878755 36.5329 5.44647e-06ZM45 36.632V30.2863H41.2454V36.632C41.2433 37.2487 41.1185 37.8587 40.8784 38.4267C40.6379 38.9985 40.289 39.5182 39.8508 39.9572C39.4151 40.3959 38.8971 40.7442 38.3265 40.9823C37.7558 41.2204 37.1439 41.3435 36.5256 41.3445H33.5124V45.0991H36.5329C37.6442 45.0983 38.7444 44.8781 39.7704 44.451C40.7964 44.024 41.7279 43.3986 42.5116 42.6107C43.296 41.8222 43.9193 40.8885 44.3467 39.8618C44.7708 38.8378 44.989 37.7403 44.989 36.632H45ZM8.4671 45.0991H13.0915V41.3445H8.4671C7.8482 41.3439 7.23552 41.2211 6.66425 40.983C6.09298 40.7449 5.57438 40.3963 5.13825 39.9572L5.04283 39.8691C4.63135 39.4353 4.30625 38.9271 4.08491 38.3717C3.8634 37.8185 3.75003 37.2279 3.75093 36.632V30.2863H1.04803e-05V36.632C-0.00170204 37.7103 0.206475 38.7786 0.612929 39.7773C1.01802 40.7855 1.61508 41.7054 2.37094 42.4859L2.48472 42.6144C3.27346 43.4002 4.20866 44.0236 5.23735 44.4495C6.26088 44.875 7.35864 45.0933 8.4671 45.0918V45.0991ZM32.8811 32.9508H35.2337V35.274H32.8811V32.9508ZM28.3448 32.9508H30.7084V35.1529H25.9848V30.6349H28.2603V28.3411H30.5872V23.7681H32.9582V26.0142H35.2043V28.3374H32.9582V30.6606H28.3448V32.9472V32.9508ZM21.3384 28.3044H23.6249V25.9812H21.4228V23.6579H23.6249V21.3347H21.3751V23.6579H19.0115V21.3347H21.3347V14.4348H23.6947V21.3311H25.9812V23.6543H28.231V21.3311H30.5909V23.6543H28.3448V25.9775H25.9848V30.5505H23.6983V35.1639H21.3384V28.3044ZM32.8444 21.3311H35.2043V23.6543H32.8444V21.3311ZM14.4054 21.3311H16.7654V23.6543H14.4054V21.3311ZM9.79203 21.3311H12.152V23.6543H9.79203V21.3311ZM21.3384 9.82506H23.6983V12.1483H21.3384V9.82506ZM9.75533 26.0142H19.0115V35.2337H9.75533V26.0142ZM12.0051 28.2603H16.7764V32.9985H12.0051V28.2603ZM25.9518 9.82873H35.2043V19.0445H25.9481V9.82506L25.9518 9.82873ZM28.2016 12.0675H32.9729V16.8057H28.2016V12.0639V12.0675ZM12.0529 12.0675H16.8241V16.8057H12.0529V12.0639V12.0675Z" fill="black"/>
</g>
<defs>
<clipPath id="clip0_80_689">
<rect width="45" height="45.0991" fill="white"/>
</clipPath>
</defs>
</svg>
