<svg width="16" height="17" viewBox="0 0 16 17" fill="none" xmlns="http://www.w3.org/2000/svg">
<g clip-path="url(#clip0_80_579)">
<path d="M7.91797 16.6207C12.1982 16.6207 15.668 13.0312 15.668 8.60342C15.668 4.17562 12.1982 0.586182 7.91797 0.586182C3.63776 0.586182 0.167969 4.17562 0.167969 8.60342C0.167969 13.0312 3.63776 16.6207 7.91797 16.6207Z" fill="#F0F0F0"/>
<path d="M1.77064 3.72241C1.16187 4.54177 0.702831 5.48614 0.435547 6.51207H4.4673L1.77064 3.72241Z" fill="#0052B4"/>
<path d="M15.4008 6.51204C15.1336 5.48614 14.6745 4.54177 14.0657 3.72241L11.3691 6.51204H15.4008Z" fill="#0052B4"/>
<path d="M0.435547 10.6948C0.702861 11.7207 1.1619 12.6651 1.77064 13.4844L4.46721 10.6948H0.435547Z" fill="#0052B4"/>
<path d="M12.6361 2.24346C11.844 1.6137 10.9312 1.13884 9.93945 0.862305V5.03306L12.6361 2.24346Z" fill="#0052B4"/>
<path d="M3.20117 14.9631C3.99322 15.5929 4.90611 16.0678 5.89781 16.3443V12.1736L3.20117 14.9631Z" fill="#0052B4"/>
<path d="M5.89778 0.862305C4.90608 1.13884 3.99319 1.6137 3.20117 2.24343L5.89778 5.03302V0.862305Z" fill="#0052B4"/>
<path d="M9.93945 16.3443C10.9312 16.0678 11.844 15.5929 12.6361 14.9632L9.93945 12.1736V16.3443Z" fill="#0052B4"/>
<path d="M11.3691 10.6948L14.0657 13.4844C14.6745 12.6651 15.1336 11.7207 15.4008 10.6948H11.3691Z" fill="#0052B4"/>
<path d="M15.6024 7.55771H8.92889H8.92886V0.654046C8.59794 0.609482 8.26057 0.586182 7.91797 0.586182C7.5753 0.586182 7.238 0.609482 6.90711 0.654046V7.55764V7.55767H0.233571C0.190492 7.9 0.167969 8.249 0.167969 8.60342C0.167969 8.9579 0.190492 9.30684 0.233571 9.64914H6.90705H6.90708V16.5528C7.238 16.5974 7.5753 16.6207 7.91797 16.6207C8.26057 16.6207 8.59794 16.5974 8.92883 16.5528V9.6492V9.64917H15.6024C15.6454 9.30684 15.668 8.9579 15.668 8.60342C15.668 8.249 15.6454 7.9 15.6024 7.55771Z" fill="#D80027"/>
<path d="M9.93945 10.6949L13.3978 14.2724C13.5568 14.1079 13.7086 13.936 13.8533 13.7577L10.8925 10.6948H9.93945V10.6949Z" fill="#D80027"/>
<path d="M5.89585 10.6948H5.89579L2.4375 14.2724C2.5965 14.4369 2.76273 14.5939 2.93504 14.7436L5.89585 11.6807V10.6948Z" fill="#D80027"/>
<path d="M5.89629 6.51199V6.51193L2.43798 2.93433C2.27892 3.0988 2.12719 3.27077 1.98242 3.44903L4.94325 6.51196H5.89629V6.51199Z" fill="#D80027"/>
<path d="M9.93945 6.512L13.3978 2.93437C13.2388 2.76983 13.0726 2.61286 12.9003 2.46313L9.93945 5.52607V6.512Z" fill="#D80027"/>
</g>
<defs>
<clipPath id="clip0_80_579">
<rect width="15.5" height="16.0345" fill="white" transform="translate(0.167969 0.586182)"/>
</clipPath>
</defs>
</svg>
