<svg width="24" height="24" viewBox="0 0 24 24" fill="none" xmlns="http://www.w3.org/2000/svg">
<path d="M18.1875 0.75H5.8125C3.01625 0.75 0.75 3.01625 0.75 5.8125V18.1875C0.75 20.9831 3.01625 23.25 5.8125 23.25H18.1875C20.9837 23.25 23.25 20.9831 23.25 18.1875V5.8125C23.25 3.01625 20.9837 0.75 18.1875 0.75Z" fill="url(#paint0_linear_325_4)"/>
<path d="M12.8138 14.2687C12.7212 14.1287 12.6188 13.9975 12.5025 13.8806H9.5925L14.0756 6.22933C14.3375 5.78246 14.1875 5.20808 13.7412 4.94621C13.2937 4.68433 12.7194 4.83433 12.4587 5.28121L11.915 6.20871L11.3712 5.28058C11.11 4.83371 10.5356 4.68433 10.0887 4.94558C9.64187 5.20683 9.49188 5.78121 9.75375 6.22808L10.8287 8.06246L7.41937 13.8806H4.6875C4.16938 13.8806 3.75 14.2962 3.75 14.8081C3.75 15.32 4.16938 15.7356 4.6875 15.7356H13.0588C13.18 15.3275 13.1469 14.8718 12.9206 14.4493L12.8138 14.2687Z" fill="white"/>
<path d="M6.14072 17.0012C5.94259 16.9956 5.74822 17.0175 5.55822 17.0556L5.25384 17.575C4.99197 18.0219 5.14197 18.5962 5.58884 18.8581C5.73759 18.9456 5.90134 18.9869 6.06197 18.9869C6.38384 18.9869 6.69759 18.8206 6.87134 18.5237L7.41197 17.6006C7.10759 17.2531 6.66822 17.0169 6.14322 17.0012H6.14072Z" fill="white"/>
<path d="M19.3134 13.8806H16.4116L13.8197 9.45813L13.3428 10.2725C13.0653 10.8663 13.0278 11.5375 13.2272 12.1544L16.9597 18.5238C17.1341 18.8213 17.4472 18.9869 17.7691 18.9869C17.9297 18.9869 18.0934 18.9456 18.2422 18.8581C18.6891 18.5963 18.8384 18.0219 18.5766 17.575L17.4984 15.7356H19.3134C19.8316 15.7356 20.2509 15.32 20.2509 14.8081C20.2509 14.2963 19.8316 13.8806 19.3134 13.8806Z" fill="white"/>
<defs>
<linearGradient id="paint0_linear_325_4" x1="12" y1="-0.114375" x2="12" y2="22.06" gradientUnits="userSpaceOnUse">
<stop stop-color="#33BEF0"/>
<stop offset="1" stop-color="#0A85D9"/>
</linearGradient>
</defs>
</svg>
