<svg width="45" height="44" viewBox="0 0 45 44" fill="none" xmlns="http://www.w3.org/2000/svg">
<path fill-rule="evenodd" clip-rule="evenodd" d="M4.25009 28.1463L29.8994 2.49611L29.9398 2.46887C30.1077 2.30802 30.3011 2.1841 30.505 2.1006C30.9532 1.91691 31.4603 1.91779 31.9095 2.1006C32.1311 2.19212 32.3324 2.32653 32.5019 2.49611L35.8707 5.86498C35.9793 5.97424 36.0456 6.11841 36.0579 6.27192C36.0711 6.42046 36.036 6.57778 35.9507 6.70962C35.7538 7.01197 35.6115 7.34244 35.5306 7.6817C34.9813 9.95896 37.0309 11.9831 39.2686 11.4461C39.6008 11.367 39.9269 11.229 40.2231 11.0383C40.3513 10.943 40.5094 10.8969 40.6687 10.9082C40.8252 10.9196 40.979 10.9855 41.0967 11.1033L44.4665 14.4731C44.6405 14.6471 44.7732 14.8492 44.8611 15.0646C44.9522 15.2878 44.9994 15.5266 45 15.7677C44.9994 16.0088 44.9522 16.2476 44.8611 16.4708C44.7732 16.6853 44.6405 16.8883 44.4665 17.0623L18.8163 42.7125C18.647 42.8817 18.446 43.0158 18.2248 43.1072C18.0018 43.1994 17.7629 43.2468 17.5217 43.2469C17.2835 43.2469 17.0435 43.2003 16.8185 43.1072C16.6023 43.0193 16.4002 42.8857 16.2262 42.7125L12.8327 39.319C12.7281 39.2153 12.6639 39.0738 12.6481 38.9279C12.6323 38.7864 12.6604 38.6344 12.7369 38.5043C12.9232 38.2081 13.0524 37.8855 13.1236 37.5542C13.5973 35.3771 11.669 33.382 9.44534 33.8452C9.11575 33.9146 8.79319 34.0385 8.49524 34.2134C8.36359 34.2967 8.20835 34.3346 8.05315 34.3215C7.89831 34.3079 7.75326 34.2401 7.64357 34.1299L4.25009 30.7356C4.08014 30.5664 3.94567 30.365 3.85458 30.1432C3.76323 29.9203 3.71607 29.6818 3.71571 29.4409C3.71571 29.2036 3.7623 28.9646 3.85458 28.7387C3.9461 28.5171 4.08051 28.3158 4.25009 28.1463ZM28.5573 2.30802L27.6547 3.22297L25.845 1.41417C25.7114 1.28058 25.4943 1.2419 25.3211 1.31222C25.2667 1.33507 25.2139 1.37022 25.1691 1.41417L21.9769 4.60638C22.0191 4.63363 22.0613 4.66615 22.1026 4.70746L23.0166 5.62153C23.0412 5.64614 23.0588 5.66723 23.0782 5.69272C23.5501 6.35278 22.6536 7.08755 22.1026 6.53559L21.1867 5.62153C21.163 5.5978 21.1463 5.57494 21.1252 5.54946L21.0883 5.49408L5.492 21.0921C5.55264 21.1229 5.60977 21.1642 5.66514 21.2196L6.57921 22.1345C6.60382 22.1591 6.62228 22.1811 6.64161 22.2057C7.11359 22.8667 6.2171 23.6014 5.66514 23.0495C5.42168 22.8043 4.76689 22.2409 4.62539 21.9579L1.41384 25.1703L1.36286 25.2011C1.26267 25.3347 1.2363 25.5263 1.30046 25.6818C1.32156 25.7372 1.35759 25.7891 1.40154 25.833L2.58455 27.016L2.2409 28.4794L0.510319 26.7479C0.347203 26.586 0.21837 26.393 0.131508 26.1802C-0.044275 25.7521 -0.0433961 25.2635 0.131508 24.8354C0.218352 24.6224 0.347179 24.429 0.510319 24.2668L24.2664 0.511527L24.3051 0.48516C24.466 0.330471 24.6505 0.211818 24.8465 0.131837C25.2763 -0.0439456 25.7624 -0.0439456 26.1921 0.131837C26.3978 0.216213 26.5921 0.343655 26.759 0.510648L28.5573 2.30802ZM39.0928 20.2352C39.1464 20.2879 39.2018 20.3293 39.2589 20.36L22.1281 37.4909L22.0999 37.4478C22.0788 37.4215 22.0595 37.3977 22.0349 37.3731L21.0813 36.4186C20.5047 35.8429 19.5704 36.6102 20.0617 37.2984C20.0828 37.3248 20.1013 37.3485 20.1259 37.3731L21.0813 38.3267C21.1182 38.3645 21.1569 38.3962 21.1964 38.4226L17.8618 41.7571C17.8144 41.8037 17.7599 41.8406 17.7036 41.8635C17.6421 41.8881 17.5753 41.9013 17.5085 41.9013C17.4461 41.9013 17.3775 41.8872 17.3142 41.8609C17.2562 41.838 17.2 41.8028 17.1569 41.7571L14.1168 38.7179C14.2765 38.3621 14.3896 37.9872 14.4534 37.6025C14.9456 34.6169 12.3677 31.9854 9.3346 32.4855C8.95315 32.547 8.57786 32.6613 8.22014 32.8212L5.17998 29.7811C5.1334 29.7336 5.09649 29.68 5.07451 29.622C5.0499 29.564 5.0376 29.4972 5.0376 29.4278C5.0376 29.3223 5.07275 29.2107 5.14043 29.121L5.19229 29.0885L8.54358 25.7372C8.56204 25.7732 8.58313 25.8102 8.6095 25.8462C8.63059 25.8734 8.64905 25.8963 8.67454 25.9209L9.62904 26.8754C10.2047 27.452 11.1399 26.6847 10.6477 25.9956C10.6275 25.9692 10.6081 25.9464 10.5835 25.9209L9.62904 24.9664C9.57569 24.9131 9.51466 24.8681 9.44798 24.8328L26.5841 7.69664L26.6228 7.75377C26.6439 7.78014 26.6624 7.80387 26.687 7.82848L27.6415 8.78298C28.2172 9.35866 29.1523 8.59137 28.6601 7.90318C28.639 7.87682 28.6206 7.85396 28.5951 7.82848L27.6415 6.87486C27.5993 6.83267 27.5553 6.79839 27.5105 6.77026L30.8425 3.43831C30.8882 3.3926 30.9435 3.35569 31.0007 3.33196C31.1817 3.25813 31.4085 3.29944 31.5474 3.43831L34.5594 6.45122C34.3834 6.80722 34.2563 7.18534 34.1815 7.57535C33.5847 10.6823 36.3102 13.3577 39.3758 12.768C39.7617 12.6941 40.1414 12.5667 40.5 12.39L43.512 15.4021C43.5578 15.4472 43.5937 15.5014 43.6175 15.5612C43.6412 15.62 43.6535 15.6868 43.6535 15.7554C43.6535 15.8793 43.606 16.0138 43.5111 16.1087L40.1704 19.4495C40.1537 19.4178 40.1343 19.3871 40.1124 19.3554C40.0913 19.329 40.0728 19.3053 40.0473 19.2807L39.0928 18.3262C38.5171 17.7505 37.5829 18.5169 38.0742 19.206C38.0953 19.2324 38.1146 19.2552 38.1392 19.2807L39.0928 20.2352ZM27.6318 12.8717L34.2351 19.4776C34.6438 19.9083 34.8494 20.4637 34.8494 21.0166C34.8494 21.5896 34.6315 22.1635 34.1973 22.5968L24.357 32.4372C23.9237 32.8713 23.3489 33.0893 22.7776 33.0893C22.2045 33.0893 21.6306 32.8713 21.1973 32.4372L14.6318 25.8717C14.1976 25.4384 13.9797 24.8644 13.9797 24.2914C13.9797 23.7219 14.1976 23.1488 14.6318 22.7137L24.4721 12.8708C24.9072 12.4357 25.4802 12.2186 26.0524 12.2186C26.6246 12.2213 27.1994 12.4393 27.6318 12.8717ZM33.2779 20.3565L26.7125 13.7919C26.6259 13.7049 26.5231 13.6359 26.4098 13.5887C26.2966 13.5415 26.1751 13.517 26.0524 13.5168C25.8125 13.5194 25.5725 13.61 25.3915 13.791L15.5512 23.6313C15.371 23.8106 15.2804 24.0506 15.2804 24.2914C15.2804 24.5313 15.371 24.7722 15.5512 24.9523L22.1166 31.5178C22.2968 31.698 22.5376 31.7885 22.7776 31.7885C23.0175 31.7885 23.2575 31.698 23.4376 31.5178L33.2779 21.6775C33.4581 21.4973 33.5486 21.2565 33.5486 21.0166C33.5486 20.7872 33.466 20.5569 33.3026 20.3793L33.2779 20.3565ZM18.2178 35.465C18.7935 36.0407 19.7286 35.2734 19.2373 34.5852C19.2153 34.558 19.1969 34.5351 19.1723 34.5105L18.2178 33.5551C17.6421 32.9794 16.7069 33.7467 17.1991 34.4358C17.2193 34.4622 17.2387 34.485 17.2633 34.5105L18.2178 35.465ZM15.3552 32.6015C15.9308 33.1781 16.866 32.4108 16.3738 31.7217C16.3527 31.6954 16.3343 31.6725 16.3088 31.647L15.3552 30.6925C14.7795 30.1168 13.8443 30.8841 14.3356 31.5723C14.3567 31.5987 14.3752 31.6224 14.4007 31.647L15.3552 32.6015ZM12.4917 29.7389C13.0673 30.3146 14.0025 29.5473 13.5112 28.8591C13.4901 28.8319 13.4716 28.809 13.447 28.7844L12.4917 27.829C11.916 27.2533 10.9808 28.0206 11.473 28.7097C11.4941 28.7361 11.5125 28.7589 11.5372 28.7844L12.4917 29.7389ZM36.2302 17.3717C36.8068 17.9483 37.7411 17.181 37.2497 16.4928C37.2278 16.4655 37.2093 16.4427 37.1847 16.4181L36.2302 15.4627C35.6536 14.887 34.7194 15.6543 35.2107 16.3425C35.2326 16.3689 35.2511 16.3926 35.2766 16.4172L36.2302 17.3717ZM33.3676 14.5091C33.9433 15.0848 34.8784 14.3175 34.3862 13.6293C34.3652 13.6029 34.3467 13.5801 34.3212 13.5546L33.3676 12.601C32.791 12.0244 31.8567 12.7917 32.348 13.4799C32.37 13.5063 32.3885 13.5291 32.4131 13.5546L33.3676 14.5091ZM30.505 11.6465C31.0807 12.2222 32.0149 11.4549 31.5236 10.7667C31.5017 10.7394 31.4832 10.7166 31.4586 10.692L30.505 9.73747C29.9284 9.16091 28.9941 9.92908 29.4854 10.6164C29.5065 10.6436 29.525 10.6665 29.5505 10.6911L30.505 11.6465Z" fill="black"/>
</svg>
