<svg width="45" height="51" viewBox="0 0 45 51" fill="none" xmlns="http://www.w3.org/2000/svg">
<path fill-rule="evenodd" clip-rule="evenodd" d="M14.2051 19.746L21.7842 15.513V7.55432C20.9035 7.3977 20.106 6.93616 19.5315 6.25057L7.3893 13.2768C7.5337 13.6811 7.61209 14.1143 7.61209 14.5682C7.61209 14.9477 7.55846 15.3108 7.45531 15.6574L14.2051 19.746ZM18.8879 5.14898C18.7268 4.72029 18.6443 4.26606 18.6445 3.8081C18.6445 2.75603 19.0694 1.80297 19.7584 1.11396C20.4474 0.424956 21.4005 0 22.4526 0C23.5046 0 24.4577 0.424956 25.1467 1.11396C25.5007 1.46752 25.7813 1.88754 25.9725 2.34989C26.1637 2.81223 26.2616 3.30779 26.2607 3.8081C26.2607 4.27019 26.1781 4.71165 26.0296 5.1201L38.2296 12.1752C38.3162 12.0721 38.4029 11.9689 38.4977 11.874C38.8513 11.52 39.2713 11.2394 39.7337 11.0482C40.196 10.8571 40.6916 10.7591 41.1919 10.7601C42.244 10.7601 43.197 11.185 43.886 11.874C44.24 12.2276 44.5207 12.6476 44.7118 13.1099C44.903 13.5723 45.0009 14.0679 45 14.5682C45 15.6202 44.575 16.5692 43.886 17.2582C43.2939 17.851 42.5221 18.2311 41.6911 18.3391V32.3297C42.5452 32.4411 43.3084 32.833 43.886 33.4106C44.575 34.0996 45 35.0527 45 36.1007C45.0004 36.6009 44.9022 37.0962 44.711 37.5585C44.5198 38.0207 44.2393 38.4407 43.8856 38.7944C43.5319 39.1481 43.1119 39.4285 42.6497 39.6198C42.1875 39.811 41.6921 39.9092 41.1919 39.9088C40.6271 39.9096 40.0693 39.7845 39.559 39.5426C39.0487 39.3006 38.5987 38.9479 38.242 38.5101L26.0255 45.5735C26.174 45.9819 26.2565 46.4234 26.2565 46.8855C26.2565 47.9375 25.8316 48.8906 25.1426 49.5796C24.789 49.9336 24.369 50.2142 23.9066 50.4054C23.4443 50.5966 22.9487 50.6945 22.4484 50.6936C21.3964 50.6936 20.4433 50.2686 19.7543 49.5796C19.0653 48.8906 18.6403 47.9375 18.6403 46.8855C18.6403 46.4151 18.727 45.9613 18.8837 45.5446L6.74568 38.5266C6.38858 38.9611 5.93944 39.3108 5.43072 39.5505C4.92199 39.7903 4.36637 39.914 3.80399 39.9129C2.75191 39.9129 1.79886 39.4879 1.10985 38.7989C0.424969 38.1099 1.31347e-05 37.1569 1.31347e-05 36.1048C1.31347e-05 35.0527 0.424969 34.1038 1.11398 33.4148C1.69941 32.8287 2.45976 32.4493 3.28002 32.3338V18.335C2.45919 18.2213 1.6983 17.8416 1.11398 17.254C0.759729 16.9015 0.478881 16.4823 0.287674 16.0206C0.0964677 15.5588 -0.00130411 15.0638 1.31347e-05 14.564C1.31347e-05 13.512 0.424969 12.5589 1.11398 11.8699C1.46753 11.5159 1.88755 11.2353 2.3499 11.0441C2.81224 10.8529 3.30781 10.755 3.80812 10.7559C4.37391 10.7549 4.93277 10.8804 5.44387 11.1231C5.95496 11.3658 6.40537 11.7196 6.76218 12.1587L18.8879 5.14898ZM25.3901 6.22582C24.8119 6.93086 23.999 7.40396 23.1003 7.55845V15.513L30.6629 19.8946L37.6148 15.876C37.4622 15.4676 37.3838 15.022 37.3838 14.564C37.3838 14.1185 37.4622 13.6852 37.6025 13.2892L25.3901 6.22582ZM40.5276 18.3144C39.7581 18.1806 39.049 17.8116 38.4977 17.2582C38.4194 17.1798 38.3451 17.1014 38.275 17.0148L31.3354 21.025V29.5984L38.3038 33.6211C38.3657 33.5509 38.4276 33.4808 38.4936 33.4148C39.0454 32.8621 39.7543 32.4933 40.5235 32.3586V18.3144H40.5276ZM37.6107 37.4044C37.4622 37.0001 37.3838 36.5627 37.3838 36.1089C37.3838 35.6303 37.4704 35.1724 37.6355 34.7474L30.8939 30.8568L23.1003 35.3869V43.1393C23.999 43.2937 24.8119 43.7668 25.3901 44.4719L37.6107 37.4044ZM19.5315 44.443C20.106 43.7574 20.9035 43.2959 21.7842 43.1393V35.3498L13.9617 30.8114L7.32329 34.6443C7.50895 35.094 7.61622 35.5891 7.61622 36.1089C7.61622 36.571 7.5337 37.0125 7.38518 37.4209L19.5315 44.443ZM4.43936 32.3503C5.23564 32.4823 5.9494 32.866 6.49813 33.4148C6.53939 33.456 6.57652 33.4973 6.61365 33.5385L13.3758 29.6355V20.7775L6.86533 16.8332C6.75393 16.9859 6.63016 17.1262 6.49813 17.2582C5.93873 17.8177 5.21933 18.1897 4.43936 18.3226V32.3503ZM3.81224 17.056C3.82875 17.056 3.84525 17.0519 3.86175 17.0519H3.89476C4.52524 17.0321 5.12438 16.7724 5.56983 16.3257C5.80156 16.0947 5.98537 15.8201 6.11069 15.5177C6.23601 15.2154 6.30038 14.8913 6.30009 14.564C6.30009 13.875 6.01954 13.252 5.56983 12.8023C5.12012 12.3526 4.49712 12.0721 3.80812 12.0721C3.11911 12.0721 2.49612 12.3526 2.0464 12.8023C1.81467 13.0334 1.63086 13.308 1.50554 13.6103C1.38022 13.9127 1.31586 14.2368 1.31614 14.564C1.31614 15.253 1.59669 15.876 2.0464 16.3257C2.27808 16.5578 2.55337 16.7419 2.85641 16.8672C3.15946 16.9925 3.4843 17.0567 3.81224 17.056ZM24.2101 45.132C23.979 44.9003 23.7045 44.7165 23.4021 44.5911C23.0998 44.4658 22.7757 44.4015 22.4484 44.4017C21.7594 44.4017 21.1364 44.6823 20.6867 45.132C20.237 45.5817 19.9565 46.2047 19.9565 46.8937C19.9565 47.5827 20.237 48.2057 20.6867 48.6554C21.1364 49.1051 21.7594 49.3857 22.4484 49.3857C23.1374 49.3857 23.7604 49.1051 24.2101 48.6554C24.6599 48.2057 24.9404 47.5827 24.9404 46.8937C24.9404 46.2047 24.664 45.5817 24.2101 45.132ZM24.2101 2.04639C23.979 1.81466 23.7045 1.63085 23.4021 1.50553C23.0998 1.38021 22.7757 1.31584 22.4484 1.31613C21.7594 1.31613 21.1364 1.59668 20.6867 2.04639C20.237 2.4961 19.9565 3.1191 19.9565 3.8081C19.9565 4.49711 20.237 5.1201 20.6867 5.56982C20.9178 5.80155 21.1924 5.98536 21.4947 6.11068C21.7971 6.236 22.1212 6.30036 22.4484 6.30008C23.1374 6.30008 23.7604 6.01953 24.2101 5.56982C24.4419 5.33872 24.6257 5.06413 24.751 4.7618C24.8763 4.45948 24.9407 4.13537 24.9404 3.8081C24.9404 3.1191 24.664 2.4961 24.2101 2.04639ZM42.9495 34.3472C42.7184 34.1155 42.4438 33.9317 42.1415 33.8063C41.8391 33.681 41.515 33.6166 41.1878 33.6169C40.4988 33.6169 39.8758 33.8975 39.4261 34.3472C39.1943 34.5783 39.0105 34.8529 38.8852 35.1552C38.7599 35.4575 38.6955 35.7816 38.6958 36.1089C38.6958 36.7979 38.9763 37.4209 39.4261 37.8706C39.6571 38.1024 39.9317 38.2862 40.2341 38.4115C40.5364 38.5368 40.8605 38.6012 41.1878 38.6009C41.8768 38.6009 42.4998 38.3203 42.9495 37.8706C43.1812 37.6395 43.365 37.3649 43.4903 37.0626C43.6157 36.7603 43.68 36.4362 43.6797 36.1089C43.6797 35.4199 43.4033 34.7969 42.9495 34.3472ZM5.56983 34.3472C5.12012 33.8975 4.49712 33.6169 3.80812 33.6169C3.11911 33.6169 2.49612 33.8975 2.0464 34.3472C1.81467 34.5783 1.63086 34.8529 1.50554 35.1552C1.38022 35.4575 1.31586 35.7816 1.31614 36.1089C1.31614 36.7979 1.59669 37.4209 2.0464 37.8706C2.49612 38.3203 3.11911 38.6009 3.80812 38.6009C4.49712 38.6009 5.12012 38.3203 5.56983 37.8706C5.80156 37.6395 5.98537 37.3649 6.11069 37.0626C6.23601 36.7603 6.30038 36.4362 6.30009 36.1089C6.29876 35.4483 6.03625 34.815 5.56983 34.3472ZM38.9681 15.6904C39.0011 15.7234 39.0259 15.7646 39.0506 15.8059C39.0754 15.8472 39.0919 15.8884 39.1084 15.9338C39.2033 16.0741 39.3105 16.2061 39.4261 16.3257C39.6571 16.5575 39.9317 16.7413 40.2341 16.8666C40.5364 16.9919 40.8605 17.0563 41.1878 17.056C41.8768 17.056 42.4998 16.7755 42.9495 16.3257C43.1812 16.0947 43.365 15.8201 43.4903 15.5177C43.6157 15.2154 43.68 14.8913 43.6797 14.564C43.6797 13.875 43.3992 13.252 42.9495 12.8023C42.7184 12.5706 42.4438 12.3868 42.1415 12.2615C41.8391 12.1361 41.515 12.0718 41.1878 12.0721C40.4988 12.0721 39.8758 12.3526 39.4261 12.8023C39.1943 13.0334 39.0105 13.308 38.8852 13.6103C38.7599 13.9127 38.6955 14.2368 38.6958 14.564C38.6999 14.9725 38.7989 15.3521 38.9681 15.6904ZM14.6094 29.4953C14.7032 29.5961 14.7649 29.7224 14.7868 29.8583L21.8543 34.013V25.8109L14.6094 21.4995V29.4953ZM30.1059 21.6109L23.0879 25.8151V34.0213L30.1059 29.8748V21.6109ZM22.4402 16.499L15.5914 20.5959L22.4773 24.7424L29.1652 20.6826L22.4402 16.499Z" fill="black"/>
</svg>
