<svg width="25" height="44" viewBox="0 0 25 44" fill="none" xmlns="http://www.w3.org/2000/svg">
<path d="M23.46 42.2828C24.0459 41.6805 24.375 40.8639 24.375 40.0123C24.375 39.1608 24.0459 38.3441 23.46 37.7419L7.99129 21.8455L23.46 5.94919C24.0293 5.34352 24.3443 4.53231 24.3371 3.6903C24.33 2.84829 24.0014 2.04283 23.422 1.44741C22.8426 0.851997 22.0588 0.514263 21.2394 0.506947C20.4201 0.49963 19.6307 0.823318 19.0413 1.4083L1.36317 19.5751C0.777319 20.1773 0.448208 20.994 0.448208 21.8455C0.448208 22.6971 0.777319 23.5138 1.36317 24.116L19.0413 42.2828C19.6273 42.8848 20.422 43.223 21.2507 43.223C22.0793 43.223 22.874 42.8848 23.46 42.2828Z" fill="#4A1C00"/>
</svg>
