<svg width="250" height="258" viewBox="0 0 250 258" fill="none" xmlns="http://www.w3.org/2000/svg">
<path d="M16.9569 143.935C23.7547 143.935 29.2654 138.272 29.2654 131.286C29.2654 124.3 23.7547 118.637 16.9569 118.637C10.1591 118.637 4.64844 124.3 4.64844 131.286C4.64844 138.272 10.1591 143.935 16.9569 143.935Z" fill="#94A4A4"/>
<path d="M16.9569 69.4596C23.7547 69.4596 29.2654 63.7965 29.2654 56.8109C29.2654 49.8252 23.7547 44.1621 16.9569 44.1621C10.1591 44.1621 4.64844 49.8252 4.64844 56.8109C4.64844 63.7965 10.1591 69.4596 16.9569 69.4596Z" fill="#94A4A4"/>
<path d="M16.9569 218.357C23.7547 218.357 29.2654 212.694 29.2654 205.709C29.2654 198.723 23.7547 193.06 16.9569 193.06C10.1591 193.06 4.64844 198.723 4.64844 205.709C4.64844 212.694 10.1591 218.357 16.9569 218.357Z" fill="#94A4A4"/>
<path d="M232.992 143.935C239.79 143.935 245.301 138.272 245.301 131.286C245.301 124.3 239.79 118.637 232.992 118.637C226.194 118.637 220.684 124.3 220.684 131.286C220.684 138.272 226.194 143.935 232.992 143.935Z" fill="#94A4A4"/>
<path d="M232.992 218.357C239.79 218.357 245.301 212.694 245.301 205.709C245.301 198.723 239.79 193.06 232.992 193.06C226.194 193.06 220.684 198.723 220.684 205.709C220.684 212.694 226.194 218.357 232.992 218.357Z" fill="#94A4A4"/>
<path d="M232.992 69.4596C239.79 69.4596 245.301 63.7965 245.301 56.8109C245.301 49.8252 239.79 44.1621 232.992 44.1621C226.194 44.1621 220.684 49.8252 220.684 56.8109C220.684 63.7965 226.194 69.4596 232.992 69.4596Z" fill="#94A4A4"/>
<path d="M163.125 91.0831H161.746V72.2937C161.746 51.4575 145.25 34.505 124.974 34.505C104.698 34.505 88.2016 51.4575 88.2016 72.2937C88.2016 74.9179 90.2956 77.0698 92.8492 77.0698C95.4028 77.0698 97.4968 74.9179 97.4968 72.2937C97.4968 56.7059 109.856 44.0047 125.025 44.0047C140.193 44.0047 152.553 56.7059 152.553 72.2937V91.0831H86.8226C80.1832 91.0831 74.7695 96.6464 74.7695 103.469V155.061C74.7695 161.884 80.1832 167.448 86.8226 167.448H163.074C169.713 167.448 175.127 161.884 175.127 155.061V103.469C175.127 96.6464 169.764 91.0831 163.125 91.0831ZM165.883 155.009C165.883 156.583 164.657 157.843 163.125 157.843H86.8226C85.2905 157.843 84.0647 156.583 84.0647 155.009V103.417C84.0647 101.842 85.2905 100.583 86.8226 100.583H163.074C164.606 100.583 165.832 101.842 165.832 103.417V155.009H165.883Z" fill="#2C2F33"/>
<path d="M126.303 115.803C122.932 115.121 119.408 117.063 117.978 120.369C116.497 123.781 117.467 127.612 120.48 129.869C121.093 130.341 121.195 130.761 121.195 131.444C121.195 134.855 121.195 138.214 121.195 141.625C121.195 144.407 124.055 146.559 126.967 145.037C128.192 144.407 128.907 143.043 128.805 141.625C128.805 138.214 128.805 134.855 128.805 131.444C128.805 130.709 128.958 130.236 129.622 129.764C131.716 128.189 132.738 126.038 132.738 123.413C132.636 119.635 130.031 116.538 126.303 115.803Z" fill="#2C2F33"/>
<path d="M58.9377 126.51H33.2482C31.2053 119.215 24.7191 113.861 16.9561 113.861C7.60981 113.861 0 121.681 0 131.286C0 140.891 7.60981 148.711 16.9561 148.711C24.668 148.711 31.2053 143.357 33.2482 136.062H58.9888C61.5424 136.062 63.6364 133.91 63.6364 131.286C63.5853 128.662 61.4913 126.51 58.9377 126.51ZM16.9561 139.159C12.7171 139.159 9.2952 135.642 9.2952 131.286C9.2952 126.93 12.7171 123.413 16.9561 123.413C21.1951 123.413 24.617 126.93 24.617 131.286C24.617 135.642 21.1951 139.159 16.9561 139.159Z" fill="#2C2F33"/>
<path d="M58.9377 98.5359H30.7967C25.7406 98.5359 21.6037 94.2846 21.6037 89.0887V73.5533C28.7028 71.454 33.9122 64.7885 33.9122 56.8109C33.9122 47.2062 26.3024 39.3861 16.9561 39.3861C7.60981 39.3861 0 47.2062 0 56.8109C0 64.736 5.2094 71.454 12.3085 73.5533V89.0887C12.3085 99.5331 20.5822 108.036 30.7457 108.036H58.9377C61.4913 108.036 63.5853 105.884 63.5853 103.259C63.5853 100.635 61.4913 98.5359 58.9377 98.5359ZM9.24413 56.8109C9.24413 52.4547 12.666 48.9382 16.905 48.9382C21.144 48.9382 24.5659 52.4547 24.5659 56.8109C24.5659 61.1671 21.144 64.6835 16.905 64.6835C12.666 64.6835 9.24413 61.1671 9.24413 56.8109Z" fill="#2C2F33"/>
<path d="M58.9374 154.484H30.7964C20.633 154.484 12.3593 162.987 12.3593 173.431V188.966C5.26018 191.066 0.0507812 197.731 0.0507812 205.709C0.0507812 215.313 7.66059 223.134 17.0069 223.134C26.3531 223.134 33.9629 215.313 33.9629 205.709C33.9629 197.784 28.7535 191.066 21.6545 188.966V173.431C21.6545 168.235 25.7913 163.984 30.8475 163.984H59.0395C61.5932 163.984 63.6871 161.832 63.6871 159.208C63.585 156.636 61.491 154.484 58.9374 154.484ZM24.6167 205.709C24.6167 210.065 21.1948 213.581 16.9558 213.581C12.7168 213.581 9.29491 210.065 9.29491 205.709C9.29491 201.353 12.7168 197.836 16.9558 197.836C21.1948 197.836 24.6167 201.353 24.6167 205.709Z" fill="#2C2F33"/>
<path d="M232.993 113.861C225.281 113.861 218.744 119.215 216.701 126.51H190.96C188.406 126.51 186.312 128.662 186.312 131.286C186.312 133.91 188.406 136.062 190.96 136.062H216.701C218.744 143.357 225.23 148.711 232.993 148.711C242.339 148.711 249.949 140.891 249.949 131.286C249.949 121.681 242.339 113.861 232.993 113.861ZM232.993 139.159C228.754 139.159 225.332 135.642 225.332 131.286C225.332 126.93 228.754 123.413 232.993 123.413C237.232 123.413 240.654 126.93 240.654 131.286C240.705 135.642 237.232 139.159 232.993 139.159Z" fill="#2C2F33"/>
<path d="M237.64 188.966V173.431C237.64 162.987 229.366 154.484 219.203 154.484H191.011C188.457 154.484 186.363 156.636 186.363 159.26C186.363 161.884 188.457 164.036 191.011 164.036H219.203C224.259 164.036 228.396 168.287 228.396 173.483V189.019C221.297 191.118 216.087 197.784 216.087 205.761C216.087 215.366 223.697 223.186 233.044 223.186C242.39 223.186 250 215.366 250 205.761C249.949 197.784 244.739 191.066 237.64 188.966ZM232.993 213.634C228.753 213.634 225.332 210.117 225.332 205.761C225.332 201.405 228.753 197.889 232.993 197.889C237.232 197.889 240.653 201.405 240.653 205.761C240.704 210.065 237.232 213.634 232.993 213.634Z" fill="#2C2F33"/>
<path d="M191.011 108.036H219.203C229.367 108.036 237.64 99.5331 237.64 89.0887V73.5533C244.739 71.454 249.949 64.7885 249.949 56.8109C249.949 47.2062 242.339 39.3861 232.993 39.3861C223.647 39.3861 216.037 47.2062 216.037 56.8109C216.037 64.736 221.246 71.454 228.345 73.5533V89.0887C228.345 94.2846 224.208 98.5359 219.152 98.5359H190.96C188.406 98.5359 186.312 100.688 186.312 103.312C186.364 105.884 188.458 108.036 191.011 108.036ZM225.332 56.8109C225.332 52.4547 228.754 48.9382 232.993 48.9382C237.232 48.9382 240.654 52.4547 240.654 56.8109C240.654 61.1671 237.232 64.6835 232.993 64.6835C228.754 64.6835 225.332 61.1671 225.332 56.8109Z" fill="#2C2F33"/>
</svg>
